<svg preserveAspectRatio="none" width="100%" height="100%" overflow="visible" style="display: block;" viewBox="0 0 17.5 17.5" fill="none" xmlns="http://www.w3.org/2000/svg">
<g id="SVG">
<path id="Vector" d="M10.0858 12.0808C10.2364 12.15 10.4061 12.1658 10.5669 12.1256C10.7276 12.0855 10.8699 11.9917 10.9703 11.8599L11.2292 11.5208C11.365 11.3397 11.5412 11.1927 11.7436 11.0915C11.9461 10.9902 12.1694 10.9375 12.3958 10.9375H14.5833C14.9701 10.9375 15.341 11.0911 15.6145 11.3646C15.888 11.6381 16.0417 12.0091 16.0417 12.3958V14.5833C16.0417 14.9701 15.888 15.341 15.6145 15.6145C15.341 15.888 14.9701 16.0417 14.5833 16.0417C11.1024 16.0417 7.76397 14.6589 5.30256 12.1974C2.84114 9.73603 1.45833 6.39763 1.45833 2.91667C1.45833 2.52989 1.61198 2.15896 1.88547 1.88547C2.15896 1.61198 2.52989 1.45833 2.91667 1.45833H5.10417C5.49094 1.45833 5.86187 1.61198 6.13536 1.88547C6.40885 2.15896 6.5625 2.52989 6.5625 2.91667V5.10417C6.5625 5.33057 6.50979 5.55386 6.40854 5.75635C6.30729 5.95885 6.16029 6.13499 5.97917 6.27083L5.63792 6.52677C5.50405 6.62898 5.4097 6.77439 5.37089 6.93828C5.33208 7.10217 5.3512 7.27444 5.425 7.42583C6.42154 9.4499 8.06052 11.0868 10.0858 12.0808Z" stroke="#155DFC" stroke-width="1.45833" stroke-linecap="round" stroke-linejoin="round"/>
</g>
</svg>
