<svg preserveAspectRatio="none" width="100%" height="100%" overflow="visible" style="display: block;" viewBox="0 0 12.8333 12.8334" fill="none" xmlns="http://www.w3.org/2000/svg">
<path id="Vector" d="M1.16182 8.94932C1.24759 9.16569 1.26669 9.40277 1.21665 9.63007L0.595404 11.5492C0.575386 11.6466 0.580562 11.7474 0.61044 11.8422C0.640317 11.9369 0.693907 12.0225 0.766126 12.0907C0.838345 12.159 0.926801 12.2076 1.0231 12.2321C1.11941 12.2566 1.22036 12.2561 1.3164 12.2306L3.30732 11.6484C3.52182 11.6059 3.74396 11.6245 3.9484 11.7021C5.19405 12.2838 6.60512 12.4069 7.93266 12.0496C9.2602 11.6923 10.4189 10.8776 11.2043 9.74929C11.9897 8.62095 12.3514 7.25148 12.2255 5.88248C12.0996 4.51347 11.4942 3.23293 10.5162 2.26677C9.53816 1.30061 8.25031 0.710928 6.87988 0.601762C5.50944 0.492596 4.14448 0.870962 3.02583 1.6701C1.90717 2.46924 1.10671 3.6378 0.765675 4.96961C0.424636 6.30142 0.564936 7.71088 1.16182 8.94932Z" stroke="white" stroke-width="1.16667" stroke-linecap="round" stroke-linejoin="round"/>
</svg>
