<svg preserveAspectRatio="none" width="100%" height="100%" overflow="visible" style="display: block;" viewBox="0 0 21 21" fill="none" xmlns="http://www.w3.org/2000/svg">
<g id="SVG">
<path id="Vector" d="M1.75 8.3125C1.75002 7.3388 2.04539 6.38801 2.59712 5.58571C3.14884 4.7834 3.93095 4.16733 4.84016 3.81885C5.74936 3.47037 6.74289 3.40589 7.68951 3.63391C8.63613 3.86194 9.49132 4.37174 10.1421 5.096C10.188 5.14501 10.2434 5.18409 10.3049 5.2108C10.3665 5.23751 10.4329 5.2513 10.5 5.2513C10.5671 5.2513 10.6335 5.23751 10.6951 5.2108C10.7566 5.18409 10.812 5.14501 10.8579 5.096C11.5066 4.36704 12.362 3.85295 13.3102 3.62215C14.2583 3.39136 15.2543 3.4548 16.1655 3.80405C17.0767 4.15329 17.86 4.77177 18.411 5.57716C18.962 6.38256 19.2546 7.33667 19.25 8.3125C19.25 10.3162 17.9375 11.8125 16.625 13.125L11.8195 17.7739C11.6565 17.9611 11.4554 18.1116 11.2298 18.2151C11.0041 18.3187 10.759 18.3731 10.5108 18.3747C10.2625 18.3763 10.0167 18.325 9.78975 18.2243C9.56281 18.1235 9.3599 17.9757 9.1945 17.7905L4.375 13.125C3.0625 11.8125 1.75 10.325 1.75 8.3125Z" stroke="#397DFF" stroke-width="1.75" stroke-linecap="round" stroke-linejoin="round"/>
</g>
</svg>
